<svg width="81" height="16" viewBox="0 0 81 16" fill="none" xmlns="http://www.w3.org/2000/svg">
<path d="M10.7727 4C10.3409 1.61364 8.43182 0.204545 6.09091 0.204545C3.11364 0.204545 0.954545 2.5 0.954545 6.18182C0.954545 9.86364 3.11364 12.1591 6.09091 12.1591C8.43182 12.1591 10.3409 10.75 10.7727 8.36364H9.36364C9.02273 9.97727 7.63636 10.8409 6.09091 10.8409C3.97727 10.8409 2.31818 9.20455 2.31818 6.18182C2.31818 3.15909 3.97727 1.52273 6.09091 1.52273C7.63636 1.52273 9.02273 2.38636 9.36364 4H10.7727ZM16.4134 12.1818C18.777 12.1818 20.3679 10.3864 20.3679 7.68182C20.3679 4.95455 18.777 3.15909 16.4134 3.15909C14.0497 3.15909 12.4588 4.95455 12.4588 7.68182C12.4588 10.3864 14.0497 12.1818 16.4134 12.1818ZM16.4134 10.9773C14.6179 10.9773 13.7997 9.43182 13.7997 7.68182C13.7997 5.93182 14.6179 4.36364 16.4134 4.36364C18.2088 4.36364 19.027 5.93182 19.027 7.68182C19.027 9.43182 18.2088 10.9773 16.4134 10.9773ZM22.5966 12H23.892V10.6591H24.0511C24.3466 11.1364 24.9148 12.1818 26.5966 12.1818C28.7784 12.1818 30.3011 10.4318 30.3011 7.65909C30.3011 4.90909 28.7784 3.15909 26.5739 3.15909C24.8693 3.15909 24.3466 4.20455 24.0511 4.65909H23.9375V0.363636H22.5966V12ZM23.9148 7.63636C23.9148 5.68182 24.7784 4.36364 26.4148 4.36364C28.1193 4.36364 28.9602 5.79545 28.9602 7.63636C28.9602 9.5 28.0966 10.9773 26.4148 10.9773C24.8011 10.9773 23.9148 9.61364 23.9148 7.63636ZM32.3523 12H33.6932V6.47727C33.6932 5.29545 34.625 4.43182 35.8977 4.43182C36.2557 4.43182 36.625 4.5 36.7159 4.52273V3.15909C36.5625 3.14773 36.2102 3.13636 36.0114 3.13636C34.9659 3.13636 34.0568 3.72727 33.7386 4.59091H33.6477V3.27273H32.3523V12ZM40.8736 12.2045C42.3963 12.2045 43.1918 11.3864 43.4645 10.8182H43.5327V12H44.8736V6.25C44.8736 3.47727 42.7599 3.15909 41.6463 3.15909C40.3281 3.15909 38.8281 3.61364 38.1463 5.20455L39.419 5.65909C39.7145 5.02273 40.4134 4.34091 41.6918 4.34091C42.9247 4.34091 43.5327 4.99432 43.5327 6.11364V6.15909C43.5327 6.80682 42.8736 6.75 41.2827 6.95455C39.6634 7.16477 37.8963 7.52273 37.8963 9.52273C37.8963 11.2273 39.2145 12.2045 40.8736 12.2045ZM41.0781 11C40.0099 11 39.2372 10.5227 39.2372 9.59091C39.2372 8.56818 40.169 8.25 41.2145 8.11364C41.7827 8.04545 43.3054 7.88636 43.5327 7.61364V8.84091C43.5327 9.93182 42.669 11 41.0781 11ZM48.6619 6.75C48.6619 5.22727 49.6051 4.36364 50.8892 4.36364C52.1335 4.36364 52.8892 5.17614 52.8892 6.54545V12H54.2301V6.45455C54.2301 4.22727 53.0426 3.15909 51.2756 3.15909C49.9574 3.15909 49.1392 3.75 48.7301 4.63636H48.6165V3.27273H47.321V12H48.6619V6.75ZM60.6634 12.1591C62.3509 11.9943 63.4474 10.8807 63.6577 9.45455H62.3168C62.0668 10.4091 61.2713 10.9773 60.2259 10.9773C58.6349 10.9773 57.6122 9.65909 57.6122 7.63636C57.6122 5.65909 58.6577 4.36364 60.2259 4.36364C61.4077 4.36364 62.1122 5.09091 62.3168 5.88636H63.6577C63.4304 4.25 62.044 3.15909 60.2031 3.15909C57.8395 3.15909 56.2713 5.02273 56.2713 7.68182C56.2713 10.0455 57.4986 11.8182 59.5554 12.1307L59.3622 13.0682C60.2259 13.1364 60.5895 13.2727 60.5895 13.7955C60.5895 14.3182 60.0668 14.5227 59.3622 14.5227L59.4077 15.4091C60.9759 15.4091 61.794 14.7273 61.794 13.75C61.794 12.8636 61.2031 12.5 60.6122 12.4091L60.6634 12.1591ZM68.1861 12.2045C69.7088 12.2045 70.5043 11.3864 70.777 10.8182H70.8452V12H72.1861V6.25C72.1861 3.47727 70.0724 3.15909 68.9588 3.15909C67.6406 3.15909 66.1406 3.61364 65.4588 5.20455L66.7315 5.65909C67.027 5.02273 67.7259 4.34091 69.0043 4.34091C70.2372 4.34091 70.8452 4.99432 70.8452 6.11364V6.15909C70.8452 6.80682 70.1861 6.75 68.5952 6.95455C66.9759 7.16477 65.2088 7.52273 65.2088 9.52273C65.2088 11.2273 66.527 12.2045 68.1861 12.2045ZM68.3906 11C67.3224 11 66.5497 10.5227 66.5497 9.59091C66.5497 8.56818 67.4815 8.25 68.527 8.11364C69.0952 8.04545 70.6179 7.88636 70.8452 7.61364V8.84091C70.8452 9.93182 69.9815 11 68.3906 11ZM80.8153 5.22727C80.3949 3.98864 79.4517 3.15909 77.7244 3.15909C75.8835 3.15909 74.5199 4.20455 74.5199 5.68182C74.5199 6.88636 75.2358 7.69318 76.8381 8.06818L78.2926 8.40909C79.1733 8.61364 79.5881 9.03409 79.5881 9.63636C79.5881 10.3864 78.7926 11 77.5426 11C76.446 11 75.7585 10.5284 75.5199 9.59091L74.2472 9.90909C74.5597 11.392 75.7812 12.1818 77.5653 12.1818C79.5938 12.1818 80.9744 11.0739 80.9744 9.56818C80.9744 8.35227 80.2131 7.58523 78.6562 7.20455L77.3608 6.88636C76.3267 6.63068 75.8608 6.28409 75.8608 5.61364C75.8608 4.86364 76.6562 4.31818 77.7244 4.31818C78.8949 4.31818 79.3778 4.96591 79.6108 5.56818L80.8153 5.22727Z" fill="#0E8750"/>
</svg>
