<svg width="61" height="13" viewBox="0 0 61 13" fill="none" xmlns="http://www.w3.org/2000/svg">
<path d="M10.7727 4C10.3409 1.61364 8.43182 0.204545 6.09091 0.204545C3.11364 0.204545 0.954545 2.5 0.954545 6.18182C0.954545 9.86364 3.11364 12.1591 6.09091 12.1591C8.43182 12.1591 10.3409 10.75 10.7727 8.36364H9.36364C9.02273 9.97727 7.63636 10.8409 6.09091 10.8409C3.97727 10.8409 2.31818 9.20455 2.31818 6.18182C2.31818 3.15909 3.97727 1.52273 6.09091 1.52273C7.63636 1.52273 9.02273 2.38636 9.36364 4H10.7727ZM14.2088 0.363636H12.8679V12H14.2088V0.363636ZM16.6648 12H18.0057V3.27273H16.6648V12ZM17.3466 1.81818C17.8693 1.81818 18.3011 1.40909 18.3011 0.909091C18.3011 0.409091 17.8693 0 17.3466 0C16.8239 0 16.392 0.409091 16.392 0.909091C16.392 1.40909 16.8239 1.81818 17.3466 1.81818ZM24.1207 12.1818C25.8935 12.1818 27.1889 11.2955 27.598 9.97727L26.3026 9.61364C25.9616 10.5227 25.1719 10.9773 24.1207 10.9773C22.5469 10.9773 21.4616 9.96023 21.3991 8.09091H27.7344V7.52273C27.7344 4.27273 25.8026 3.15909 23.9844 3.15909C21.6207 3.15909 20.0526 5.02273 20.0526 7.70455C20.0526 10.3864 21.598 12.1818 24.1207 12.1818ZM21.3991 6.93182C21.4901 5.57386 22.4503 4.36364 23.9844 4.36364C25.4389 4.36364 26.3707 5.45455 26.3707 6.93182H21.3991ZM31.1151 6.75C31.1151 5.22727 32.0582 4.36364 33.3423 4.36364C34.5866 4.36364 35.3423 5.17614 35.3423 6.54545V12H36.6832V6.45455C36.6832 4.22727 35.4957 3.15909 33.7287 3.15909C32.4105 3.15909 31.5923 3.75 31.1832 4.63636H31.0696V3.27273H29.7741V12H31.1151V6.75ZM42.929 3.27273H41.0653V1.18182H39.7244V3.27273H38.4062V4.40909H39.7244V9.86364C39.7244 11.3864 40.9517 12.1136 42.0881 12.1136C42.5881 12.1136 42.9062 12.0227 43.0881 11.9545L42.8153 10.75C42.7017 10.7727 42.5199 10.8182 42.2244 10.8182C41.6335 10.8182 41.0653 10.6364 41.0653 9.5V4.40909H42.929V3.27273ZM48.5114 12.1818C50.2841 12.1818 51.5795 11.2955 51.9886 9.97727L50.6932 9.61364C50.3523 10.5227 49.5625 10.9773 48.5114 10.9773C46.9375 10.9773 45.8523 9.96023 45.7898 8.09091H52.125V7.52273C52.125 4.27273 50.1932 3.15909 48.375 3.15909C46.0114 3.15909 44.4432 5.02273 44.4432 7.70455C44.4432 10.3864 45.9886 12.1818 48.5114 12.1818ZM45.7898 6.93182C45.8807 5.57386 46.8409 4.36364 48.375 4.36364C49.8295 4.36364 50.7614 5.45455 50.7614 6.93182H45.7898ZM60.3466 5.22727C59.9261 3.98864 58.983 3.15909 57.2557 3.15909C55.4148 3.15909 54.0511 4.20455 54.0511 5.68182C54.0511 6.88636 54.767 7.69318 56.3693 8.06818L57.8239 8.40909C58.7045 8.61364 59.1193 9.03409 59.1193 9.63636C59.1193 10.3864 58.3239 11 57.0739 11C55.9773 11 55.2898 10.5284 55.0511 9.59091L53.7784 9.90909C54.0909 11.392 55.3125 12.1818 57.0966 12.1818C59.125 12.1818 60.5057 11.0739 60.5057 9.56818C60.5057 8.35227 59.7443 7.58523 58.1875 7.20455L56.892 6.88636C55.858 6.63068 55.392 6.28409 55.392 5.61364C55.392 4.86364 56.1875 4.31818 57.2557 4.31818C58.4261 4.31818 58.9091 4.96591 59.142 5.56818L60.3466 5.22727Z" fill="#0E8750"/>
</svg>
