<svg width="22" height="22" viewBox="0 0 22 22" fill="none" xmlns="http://www.w3.org/2000/svg">
<path d="M2.70852 20.2744H12.624C13.3767 20.2744 13.969 19.65 13.819 18.9124C13.405 16.876 12.0526 13.2744 7.66628 13.2744C3.28003 13.2744 1.92768 16.876 1.5136 18.9124C1.36362 19.65 1.95586 20.2744 2.70852 20.2744Z" stroke="#3F3F55" stroke-width="1.5" stroke-linecap="round" stroke-linejoin="round"/>
<path d="M16 13.2744C18.7717 13.2744 19.9069 16.1383 20.3652 18.2024C20.6127 19.3171 19.7111 20.2744 18.5692 20.2744H17.3333" stroke="#3F3F55" stroke-width="1.5" stroke-linecap="round" stroke-linejoin="round"/>
<path d="M7.66667 8.27425C9.69171 8.27425 11.3333 6.63263 11.3333 4.60758C11.3333 2.58254 9.69171 0.940918 7.66667 0.940918C5.64162 0.940918 4 2.58254 4 4.60758C4 6.63263 5.64162 8.27425 7.66667 8.27425Z" stroke="#3F3F55" stroke-width="1.5" stroke-linecap="round" stroke-linejoin="round"/>
<path d="M14.666 8.27425C16.6911 8.27425 17.9993 6.63262 17.9993 4.60758C17.9993 2.58254 16.6911 0.940918 14.666 0.940918" stroke="#3F3F55" stroke-width="1.5" stroke-linecap="round" stroke-linejoin="round"/>
</svg>
